{"title":"Jersey.Boys.2014.1080p.WEB-DL.H264.AAC.Mp4.Raven","uid":11165469,"size":2095632111,"categoryP":"video","categoryS":"hd___movies","magnet":"?xt=urn:btih:b3a06b8c08e67c4b3f6c4d2af4357eaba069122d&amp;dn=Jersey.Boys.2014.1080p.WEB-DL.H264.AAC.Mp4.Raven&amp;tr=udp%3A%2F%2Ftracker.openbittorrent.com%3A80&amp;tr=udp%3A%2F%2Fopen.demonii.com%3A1337&amp;tr=udp%3A%2F%2Ftracker.coppersurfer.tk%3A6969&amp;tr=udp%3A%2F%2Fexodus.desync.com%3A6969","seeders":3,"leechers":0,"uploader":"Raven1969","files":-1,"time":1412624734,"description":"Jersey.Boys.2014.1080p.WEB-DL.H264.AAC.Mp4.Raven.\n\n\n\n\n\nRuntime:\n134 mins. \n\n\n\nScreen images:\n\n\n &lt;a href=&quot;\nhttp://i.imgur.com/Ad1oQ70.png&quot; rel=&quot;nofollow&quot; target=&quot;_NEW&quot;&gt;\nhttp://i.imgur.com/Ad1oQ70.png&lt;/a&gt;\n\n\n &lt;a href=&quot;\nhttp://i.imgur.com/fgINseK.png&quot; rel=&quot;nofollow&quot; target=&quot;_NEW&quot;&gt;\nhttp://i.imgur.com/fgINseK.png&lt;/a&gt;\n\n\n &lt;a href=&quot;\nhttp://i.imgur.com/YURM85j.png&quot; rel=&quot;nofollow&quot; target=&quot;_NEW&quot;&gt;\nhttp://i.imgur.com/YURM85j.png&lt;/a&gt;\n\n\n &lt;a href=&quot;\nhttp://i.imgur.com/7TLegy2.png&quot; rel=&quot;nofollow&quot; target=&quot;_NEW&quot;&gt;\nhttp://i.imgur.com/7TLegy2.png&lt;/a&gt;\n\n\n &lt;a href=&quot;\nhttp://i.imgur.com/H56rsav.png&quot; rel=&quot;nofollow&quot; target=&quot;_NEW&quot;&gt;\nhttp://i.imgur.com/H56rsav.png&lt;/a&gt;\n\n\n &lt;a href=&quot;\nhttp://i.imgur.com/wkhB19l.png&quot; rel=&quot;nofollow&quot; target=&quot;_NEW&quot;&gt;\nhttp://i.imgur.com/wkhB19l.png&lt;/a&gt;\n\n\n\nIMDB:\n\n\n\n &lt;a href=&quot;\nhttp://www.imdb.com/title/tt1742044&quot; rel=&quot;nofollow&quot; target=&quot;_NEW&quot;&gt;\nhttp://www.imdb.com/title/tt1742044&lt;/a&gt;\n\n\n\n\nIMDB Rating:  7.3\n\n\n\n\nStoryline:\n\nThe story of four young men from the wrong side of the tracks in New Jersey who came together to form the iconic 1960s rock group The Four Seasons.\n\nJersey Boys is a musical biography of the Four Seasons-the rise, the tough times and personal clashes, and the ultimate triumph of a group of friends whose music became symbolic of a generation. Far from a mere tribute concert (though it does include numbers from the popular Four Seasons songbook), Jersey Boys gets to the heart of the relationships at the center of the group-with a special focus on frontman Frankie Valli, the small kid with the big falsetto. In addition to following the quartet's coming of age as performers, the core of the show is how an allegiance to a code of honor learned in the streets of their native New Jersey got them through a multitude of challenges: gambling debts, Mafia threats and family disasters. Jersey Boys is a glimpse at the people behind a sound that has managed to endure for over four decades in the hearts of the public. \n\n\nDirector:\nClint Eastwood \n\n\n\nGeneral\nFormat                                   : MPEG-4\nFormat profile                           : Base Media\nCodec ID                                 : isom\nFile size                                : 1.94 GiB\nDuration                                 : 2h 14mn\nOverall bit rate mode                    : Variable\nOverall bit rate                         : 2 075 Kbps\nEncoded date                             : UTC 2014-10-06 16:51:56\nTagged date                              : UTC 2014-10-06 16:51:56\nWriting application                      : My MP4Box GUI 0.6.0.6 &lt;http://my-mp4box-gui.zymichost.com&gt;\n\nVideo\nID                                       : 1\nFormat                                   : AVC\nFormat/Info                              : Advanced Video Codec\nFormat profile                           : &lt;a class=&quot;__cf_email__&quot; href=&quot;/cdn-cgi/l/email-protection&quot; data-cfemail=&quot;1d55747a755d5129332d&quot;&gt;[email&amp;#160;protected]&lt;/a&gt;&lt;script cf-hash='f9e31' type=&quot;text/javascript&quot;&gt;\n/* &lt;![CDATA[ */!function(){try{var t=&quot;currentScript&quot;in document?document.currentScript:function(){for(var t=document.getElementsByTagName(&quot;script&quot;),e=t.length;e--;)if(t[e].getAttribute(&quot;cf-hash&quot;))return t[e]}();if(t&amp;&amp;t.previousSibling){var e,r,n,i,c=t.previousSibling,a=c.getAttribute(&quot;data-cfemail&quot;);if(a){for(e=&quot;&quot;,r=parseInt(a.substr(0,2),16),n=2;a.length-n;n+=2)i=parseInt(a.substr(n,2),16)^r,e+=String.fromCharCode(i);e=document.createTextNode(e),c.parentNode.replaceChild(e,c)}}}catch(u){}}();/* ]]&gt; */&lt;/script&gt;\nFormat settings, CABAC                   : Yes\nFormat settings, ReFrames                : 4 frames\nCodec ID                                 : avc1\nCodec ID/Info                            : Advanced Video Coding\nDuration                                 : 2h 14mn\nBit rate                                 : 2 000 Kbps\nMaximum bit rate                         : 76.2 Mbps\nWidth                                    : 1 916 pixels\nHeight                                   : 800 pixels\nDisplay aspect ratio                     : 2.40:1\nFrame rate mode                          : Constant\nFrame rate                               : 23.976 fps\nColor space                              : YUV\nChroma subsampling                       : 4:2:0\nBit depth                                : 8 bits\nScan type                                : Progressive\nBits/(Pixel*Frame)                       : 0.054\nStream size                              : 1.85 GiB (95%)\nTitle                                    : Jersey.Boys.2014.1080p.WEB-DL.H264.AAC.Mp4.Raven.mp4\nWriting library                          : x264 core 142 \nLanguage                                 : English\nEncoded date                             : UTC 2014-10-06 16:38:07\nTagged date                              : UTC 2014-10-06 16:54:26\n\nAudio\nID                                       : 2\nFormat                                   : AAC\nFormat/Info                              : Advanced Audio Codec\nFormat profile                           : HE-AAC / LC\nCodec ID                                 : 40\nDuration                                 : 2h 14mn\nBit rate mode                            : Variable\nBit rate                                 : 96.0 Kbps\nMaximum bit rate                         : 101 Kbps\nChannel(s)                               : 2 channels\nChannel positions                        : Front: L R\nSampling rate                            : 48.0 KHz / 24.0 KHz\nCompression mode                         : Lossy\nStream size                              : 90.9 MiB (5%)\nTitle                                    : Jersey.Boys.2014.1080p.WEB-DL.H264.AAC.Mp4.Raven.aac\nEncoded date                             : UTC 2014-10-06 16:53:57\nTagged date                              : UTC 2014-10-06 16:54:26\n\n\nPLEASE  SEED FOR AS LONG AS POSSIBLE TO KEEP THE TORRENT ALIVE :-)","torrent":{"xt":"urn:btih:b3a06b8c08e67c4b3f6c4d2af4357eaba069122d","amp;dn":"Jersey.Boys.2014.1080p.WEB-DL.H264.AAC.Mp4.Raven","amp;tr":["udp%3A%2F%2Ftracker.openbittorrent.com%3A80","udp%3A%2F%2Fopen.demonii.com%3A1337","udp%3A%2F%2Ftracker.coppersurfer.tk%3A6969","udp%3A%2F%2Fexodus.desync.com%3A6969"],"infoHash":"b3a06b8c08e67c4b3f6c4d2af4357eaba069122d","infoHashBuffer":{"type":"Buffer","data":[179,160,107,140,8,230,124,75,63,108,77,42,244,53,126,171,160,105,18,45]},"announce":[],"urlList":[]}}